<svg width="120" height="34" viewBox="0 0 120 34" xmlns="http://www.w3.org/2000/svg"><title>Imported Layers Copy</title><g fill="none" fill-rule="evenodd"><g fill="#313940"><path d="M35.484 20.483c0 3.27-.25 4.34-.92 5.13-.587.648-1.564.957-2.68 1.042l.25 1.945c1.312 0 3.1-.45 4.187-1.55 1.202-1.24 1.62-2.96 1.62-5.61V9.07h-2.456v11.415M53.824 18.99c0 1.408.027 2.648.11 3.72H51.76l-.14-2.227h-.055c-.643 1.1-2.066 2.536-4.467 2.536-2.12 0-4.662-1.184-4.662-5.976V9.068h2.457v7.553c0 2.594.783 4.342 3.016 4.342 1.647 0 2.79-1.156 3.238-2.255.14-.366.223-.817.223-1.268V9.067h2.457v9.92M58.458 13.52c0-1.746-.056-3.155-.112-4.452h2.205l.113 2.34h.056c1.004-1.664 2.595-2.65 4.8-2.65 3.266 0 5.723 2.79 5.723 6.934 0 4.904-2.96 7.327-6.142 7.327-1.785 0-3.348-.79-4.158-2.143h-.056v7.413h-2.428V13.52zm2.428 3.637c0 .367.056.705.112 1.015.447 1.72 1.926 2.903 3.685 2.903 2.596 0 4.103-2.142 4.103-5.27 0-2.735-1.423-5.074-4.02-5.074-1.674 0-3.238 1.213-3.712 3.073-.084.31-.168.676-.168 1.015v2.34zM75.598 9.068l2.958 8.06c.308.903.642 1.974.866 2.79h.056c.25-.816.53-1.86.865-2.846l2.68-8.004h2.596l-3.686 9.724c-1.758 4.678-2.96 7.074-4.634 8.54-1.2 1.07-2.4 1.493-3.014 1.606l-.615-2.085c.616-.198 1.425-.592 2.15-1.212.67-.535 1.508-1.493 2.067-2.762.11-.253.195-.45.195-.59 0-.142-.056-.34-.168-.65l-4.996-12.57h2.68M92.08 5.15v3.918h3.516v1.888H92.08v7.357c0 1.69.474 2.65 1.842 2.65.64 0 1.116-.086 1.423-.17l.112 1.86c-.475.197-1.23.338-2.178.338-1.145 0-2.066-.365-2.653-1.042-.697-.732-.95-1.944-.95-3.55v-7.442h-2.092V9.068h2.093v-3.27l2.4-.648M100.12 16.34c.054 3.354 2.176 4.735 4.632 4.735 1.76 0 2.82-.31 3.74-.705l.42 1.776c-.866.394-2.345.845-4.495.845-4.16 0-6.643-2.76-6.643-6.876 0-4.115 2.4-7.356 6.336-7.356 4.41 0 5.583 3.918 5.583 6.426 0 .508-.056.902-.084 1.156h-9.49zm7.2-1.776c.028-1.578-.642-4.03-3.405-4.03-2.484 0-3.573 2.31-3.768 4.03h7.173zM113.294 13.324c0-1.607-.028-2.988-.11-4.256h2.148l.084 2.678h.112c.614-1.832 2.093-2.988 3.74-2.988.28 0 .475.028.698.085v2.34c-.25-.057-.502-.086-.838-.086-1.73 0-2.958 1.325-3.293 3.185-.056.338-.112.733-.112 1.156v7.27h-2.43v-9.384"/></g><path d="M23.408 2.713c.054 1.276-.926 2.354-2.19 2.41-1.264.053-2.332-.936-2.386-2.212-.054-1.275.926-2.353 2.19-2.408 1.263-.055 2.332.936 2.386 2.21" fill="#767474"/><path d="M12.474 25.282c-5.04 0-9.43-1.83-11.717-4.536 1.73 4.85 6.322 8.317 11.717 8.317 5.394 0 9.987-3.467 11.717-8.317-2.285 2.705-6.675 4.536-11.716 4.536M12.474 7.676c5.04 0 9.43 1.83 11.717 4.536-1.73-4.85-6.322-8.317-11.716-8.317-5.395 0-9.987 3.467-11.717 8.317 2.286-2.705 6.676-4.536 11.717-4.536" fill="#E46E2E"/><path d="M6.535 30.636c.064 1.515-1.1 2.796-2.602 2.86-1.5.066-2.77-1.11-2.834-2.625-.066-1.515 1.1-2.796 2.6-2.86 1.5-.066 2.77 1.11 2.835 2.626M1.735 6.624C.817 6.664.04 5.944.002 5.018c-.04-.927.672-1.71 1.59-1.75.918-.04 1.695.68 1.734 1.606.04.927-.673 1.71-1.59 1.75z" fill="#767474"/></g></svg>