<?xml version="1.0" encoding="UTF-8" standalone="no"?>
<svg width="708px" height="223px" viewBox="0 0 708 223" version="1.1" xmlns="http://www.w3.org/2000/svg" xmlns:xlink="http://www.w3.org/1999/xlink" xmlns:sketch="http://www.bohemiancoding.com/sketch/ns">
    <!-- Generator: Sketch 3.3.3 (12072) - http://www.bohemiancoding.com/sketch -->
    <title>Imported Layers</title>
    <desc>Created with Sketch.</desc>
    <defs></defs>
    <g id="Page-1" stroke="none" stroke-width="1" fill="none" fill-rule="evenodd" sketch:type="MSPage">
        <g id="Artboard" sketch:type="MSArtboardGroup" transform="translate(-118.000000, -31.000000)">
            <g id="Imported-Layers" sketch:type="MSLayerGroup" transform="translate(118.000000, 31.000000)">
                <g id="Group" transform="translate(0.000000, 25.590551)" sketch:type="MSShapeGroup">
                    <path d="M95.5587296,7.14181102 C95.7288927,11.1554331 92.6477253,14.5477165 88.6752275,14.719685 C84.7047554,14.8916535 81.347073,11.7777953 81.1769099,7.76417323 C81.0067468,3.75055118 84.0879142,0.357244094 88.0593991,0.185275591 C92.0308841,0.0133070866 95.3885665,3.12818898 95.5587296,7.14181102" id="Fill-8" fill="#636462"></path>
                    <path d="M51.4824378,104.50874 C29.4665751,104.50874 10.294867,96.5122047 0.313991416,84.6996063 C7.86700429,105.877323 27.9239657,121.01874 51.4824378,121.01874 C75.0409099,121.01874 95.0978712,105.877323 102.650884,84.6996063 C92.6700086,96.5122047 73.4983004,104.50874 51.4824378,104.50874" id="Fill-9" fill="#E46E2E"></path>
                    <path d="M51.4824378,27.6214173 C73.4983004,27.6214173 92.6700086,35.6169291 102.650884,47.4305512 C95.0978712,26.2528346 75.0409099,11.1103937 51.4824378,11.1103937 C27.9239657,11.1103937 7.86700429,26.2528346 0.313991416,47.4305512 C10.294867,35.6169291 29.4665751,27.6214173 51.4824378,27.6214173" id="Fill-10" fill="#E46E2E"></path>
                    <path d="M23.3366524,127.230079 C23.5412532,132.060551 19.832103,136.14378 15.0523433,136.351575 C10.2725837,136.558346 6.23222318,132.809843 6.02762232,127.97937 C5.82200858,123.148898 9.5311588,119.064646 14.3109185,118.857874 C19.0906781,118.651102 23.1320515,122.399606 23.3366524,127.230079" id="Fill-11" fill="#8A8B8A"></path>
                    <path d="M11.4049785,17.1886614 C11.5305751,20.1325984 9.26983691,22.6210236 6.35781974,22.7469291 C3.44580258,22.8728346 0.983502146,20.5891339 0.858918455,17.6451969 C0.733321888,14.7022835 2.99304721,12.2138583 5.90607725,12.0879528 C8.81809442,11.9620472 11.2803948,14.245748 11.4049785,17.1886614" id="Fill-12" fill="#4D4D4C"></path>
                </g>
                <g id="Group-+-nbviewer" transform="translate(138.763948, 0.000000)" sketch:type="MSShapeGroup">
                    <g id="Group" fill="#343433">
                        <path d="M24.1813906,98.9566142 C24.1813906,120.04937 22.5618026,126.958819 18.2439142,132.050315 C14.4658884,136.232835 8.1688412,138.231969 0.970334764,138.778583 L2.58992275,151.325118 C11.0464206,151.325118 22.5618026,148.415984 29.5800172,141.325354 C37.3163605,133.323701 40.0156738,122.231732 40.0156738,105.139291 L40.0156738,25.3111024 L24.1813906,25.3111024 L24.1813906,98.9566142" id="Fill-1"></path>
                        <path d="M142.39612,89.3192126 C142.39612,98.41 142.575399,106.411654 143.115262,113.321102 L129.080858,113.321102 L128.181425,98.9566142 L127.821854,98.9566142 C123.682232,106.048268 114.506592,115.32126 99.0328927,115.32126 C85.3580601,115.32126 68.9839142,107.684016 68.9839142,76.7726772 L68.9839142,25.3111024 L84.8181974,25.3111024 L84.8181974,74.0437008 C84.8181974,90.7727559 89.8562403,102.047953 104.251227,102.047953 C114.866163,102.047953 122.242936,94.5918898 125.122541,87.4992126 C126.021974,85.1366929 126.561837,82.2265354 126.561837,79.3174016 L126.561837,25.3111024 L142.39612,25.3111024 L142.39612,89.3192126" id="Fill-2"></path>
                        <path d="M172.266833,54.042126 C172.266833,42.7689764 171.907262,33.6761417 171.546678,25.3111024 L185.761373,25.3111024 L186.481528,40.4044094 L186.841099,40.4044094 C193.318438,29.6758268 203.574815,23.3109449 217.789511,23.3109449 C238.841116,23.3109449 254.674386,41.3133858 254.674386,68.044252 C254.674386,99.6833858 235.60194,115.32126 215.090197,115.32126 C203.574815,115.32126 193.49873,110.229764 188.280395,101.501339 L187.920824,101.501339 L187.920824,149.324961 L172.266833,149.324961 L172.266833,54.042126 L172.266833,54.042126 Z M187.920824,77.4994488 C187.920824,79.8640157 188.280395,82.0453543 188.640979,84.0455118 C191.519571,95.1374803 201.055794,102.774724 212.390884,102.774724 C229.124601,102.774724 238.841116,88.9548031 238.841116,68.7710236 C238.841116,51.1329921 229.664464,36.039685 212.930747,36.039685 C202.135519,36.039685 192.059433,43.8591339 189.000549,55.8600787 C188.460687,57.8602362 187.920824,60.2237795 187.920824,62.4061417 L187.920824,77.4994488 L187.920824,77.4994488 Z" id="Fill-3"></path>
                        <path d="M282.746232,25.3111024 L301.817665,77.3172441 C303.797837,83.1365354 305.956275,90.0459843 307.396584,95.319685 L307.756155,95.319685 C309.37473,90.0459843 311.174609,83.3177165 313.333047,76.9528346 L330.606627,25.3111024 L347.340343,25.3111024 L323.589425,88.0458268 C312.254335,118.230394 304.516979,133.687087 293.721751,143.143307 C285.984395,150.051732 278.247039,152.780709 274.288721,153.50748 L270.330403,140.051969 C274.288721,138.778583 279.507056,136.232835 284.185528,132.23252 C288.503416,128.776772 293.902043,122.595118 297.499777,114.412283 C298.218918,112.776535 298.758781,111.50315 298.758781,110.594173 C298.758781,109.684173 298.39921,108.411811 297.679056,106.411654 L265.472652,25.3111024 L282.746232,25.3111024" id="Fill-4"></path>
                        <path d="M388.981682,0.0358267717 L388.981682,25.3111024 L411.652876,25.3111024 L411.652876,37.4952756 L388.981682,37.4952756 L388.981682,84.9544882 C388.981682,95.864252 392.040567,102.047953 400.857648,102.047953 C404.995245,102.047953 408.054129,101.501339 410.033288,100.956772 L410.753442,112.956693 C407.694558,114.230079 402.835794,115.139055 396.719039,115.139055 C389.341253,115.139055 383.403777,112.776535 379.624738,108.411811 C375.126558,103.683701 373.507983,95.864252 373.507983,85.4990551 L373.507983,37.4952756 L360.013442,37.4952756 L360.013442,25.3111024 L373.507983,25.3111024 L373.507983,4.21834646 L388.981682,0.0358267717" id="Fill-5"></path>
                        <path d="M440.802421,72.225748 C441.161991,93.8640945 454.836824,102.774724 470.671107,102.774724 C482.006197,102.774724 488.843107,100.774567 494.780584,98.2277953 L497.479897,109.684173 C491.901991,112.229921 482.366781,115.139055 468.511657,115.139055 C441.701854,115.139055 425.688292,97.3198425 425.688292,70.7711811 C425.688292,44.2225197 441.161991,23.3109449 466.532498,23.3109449 C494.961888,23.3109449 502.51794,48.5862205 502.51794,64.7707087 C502.51794,68.044252 502.158369,70.5889764 501.978077,72.225748 L440.802421,72.225748 L440.802421,72.225748 Z M487.223519,60.7703937 C487.403811,50.586378 483.085923,34.7662992 465.272481,34.7662992 C449.258918,34.7662992 442.241717,49.6774016 440.982712,60.7703937 L487.223519,60.7703937 L487.223519,60.7703937 Z" id="Fill-6"></path>
                        <path d="M525.731021,52.7687402 C525.731021,42.4045669 525.55073,33.493937 525.010867,25.3111024 L538.865991,25.3111024 L539.405854,42.5867717 L540.124996,42.5867717 C544.084326,30.7670079 553.620549,23.3109449 564.235485,23.3109449 C566.035365,23.3109449 567.295382,23.4931496 568.734678,23.8575591 L568.734678,38.9488189 C567.11509,38.5864567 565.495502,38.404252 563.336052,38.404252 C552.18024,38.404252 544.264618,46.9504724 542.105167,58.9514173 C541.744584,61.1327559 541.385013,63.6795276 541.385013,66.4064567 L541.385013,113.321102 L525.731021,113.321102 L525.731021,52.7687402" id="Fill-7"></path>
                    </g>
                    <path d="M5.913,221.708661 L13.041,221.708661 L13.041,198.137661 C13.041,196.922661 13.203,195.707661 13.527,194.816661 C14.742,190.847661 18.387,187.526661 23.085,187.526661 C29.808,187.526661 32.157,192.791661 32.157,199.109661 L32.157,221.708661 L39.285,221.708661 L39.285,198.299661 C39.285,184.853661 30.861,181.613661 25.434,181.613661 C18.954,181.613661 14.418,185.258661 12.474,188.984661 L12.312,188.984661 L11.907,182.504661 L5.589,182.504661 C5.832,185.744661 5.913,189.065661 5.913,193.115661 L5.913,221.708661 Z M56.7,221.708661 L57.024,215.228661 L57.267,215.228661 C60.183,220.412661 64.719,222.599661 70.389,222.599661 C79.137,222.599661 87.966,215.633661 87.966,201.620661 C88.047,189.713661 81.162,181.613661 71.442,181.613661 C65.124,181.613661 60.588,184.448661 58.077,188.822661 L57.915,188.822661 L57.915,164.198661 L50.868,164.198661 L50.868,211.583661 C50.868,215.066661 50.706,219.035661 50.544,221.708661 L56.7,221.708661 Z M57.915,198.947661 C57.915,197.813661 58.158,196.841661 58.32,196.031661 C59.778,190.604661 64.314,187.283661 69.174,187.283661 C76.788,187.283661 80.838,194.006661 80.838,201.863661 C80.838,210.854661 76.383,216.929661 68.931,216.929661 C63.747,216.929661 59.616,213.527661 58.239,208.586661 C58.077,207.776661 57.915,206.885661 57.915,205.994661 L57.915,198.947661 Z M92.097,182.504661 L107.001,221.708661 L113.805,221.708661 L129.195,182.504661 L121.743,182.504661 L114.129,204.536661 C112.833,208.100661 111.699,211.340661 110.808,214.580661 L110.565,214.580661 C109.755,211.340661 108.702,208.100661 107.406,204.536661 L99.711,182.504661 L92.097,182.504661 Z M143.046,221.708661 L143.046,182.504661 L135.918,182.504661 L135.918,221.708661 L143.046,221.708661 Z M139.482,167.033661 C136.89,167.033661 135.027,168.977661 135.027,171.488661 C135.027,173.918661 136.809,175.862661 139.32,175.862661 C142.155,175.862661 143.937,173.918661 143.856,171.488661 C143.856,168.977661 142.155,167.033661 139.482,167.033661 L139.482,167.033661 Z M186.381,203.402661 C186.462,202.673661 186.624,201.539661 186.624,200.081661 C186.624,192.872661 183.222,181.613661 170.424,181.613661 C159.003,181.613661 152.037,190.928661 152.037,202.754661 C152.037,214.580661 159.246,222.518661 171.315,222.518661 C177.552,222.518661 181.845,221.222661 184.356,220.088661 L183.141,214.985661 C180.468,216.119661 177.39,217.010661 172.287,217.010661 C165.159,217.010661 159.003,213.041661 158.841,203.402661 L186.381,203.402661 Z M158.922,198.299661 C159.489,193.358661 162.648,186.716661 169.857,186.716661 C177.876,186.716661 179.82,193.763661 179.739,198.299661 L158.922,198.299661 Z M190.998,182.504661 L202.824,221.708661 L209.304,221.708661 L215.622,203.078661 C216.999,198.866661 218.214,194.816661 219.186,190.118661 L219.348,190.118661 C220.32,194.735661 221.454,198.623661 222.831,202.997661 L228.825,221.708661 L235.305,221.708661 L247.941,182.504661 L240.894,182.504661 L235.305,202.187661 C234.009,206.804661 232.956,210.935661 232.308,214.904661 L232.065,214.904661 C231.174,210.935661 230.04,206.804661 228.582,202.106661 L222.507,182.504661 L216.513,182.504661 L210.114,202.511661 C208.818,206.723661 207.522,210.935661 206.631,214.904661 L206.388,214.904661 C205.659,210.854661 204.606,206.804661 203.472,202.430661 L198.288,182.504661 L190.998,182.504661 Z M286.578,203.402661 C286.659,202.673661 286.821,201.539661 286.821,200.081661 C286.821,192.872661 283.419,181.613661 270.621,181.613661 C259.2,181.613661 252.234,190.928661 252.234,202.754661 C252.234,214.580661 259.443,222.518661 271.512,222.518661 C277.749,222.518661 282.042,221.222661 284.553,220.088661 L283.338,214.985661 C280.665,216.119661 277.587,217.010661 272.484,217.010661 C265.356,217.010661 259.2,213.041661 259.038,203.402661 L286.578,203.402661 Z M259.119,198.299661 C259.686,193.358661 262.845,186.716661 270.054,186.716661 C278.073,186.716661 280.017,193.763661 279.936,198.299661 L259.119,198.299661 Z M295.65,221.708661 L302.697,221.708661 L302.697,200.810661 C302.697,199.595661 302.859,198.461661 303.021,197.489661 C303.993,192.143661 307.557,188.336661 312.579,188.336661 C313.551,188.336661 314.28,188.417661 315.009,188.579661 L315.009,181.856661 C314.361,181.694661 313.794,181.613661 312.984,181.613661 C308.205,181.613661 303.912,184.934661 302.13,190.199661 L301.806,190.199661 L301.563,182.504661 L295.326,182.504661 C295.569,186.149661 295.65,190.118661 295.65,194.735661 L295.65,221.708661 Z" id="nbviewer" fill="#E46E2E"></path>
                </g>
            </g>
        </g>
    </g>
</svg>