<svg width="708" height="223" viewBox="0 0 708 223" xmlns="http://www.w3.org/2000/svg"><title>Imported Layers</title><g fill="none" fill-rule="evenodd"><path d="M95.56 32.732c.17 4.014-2.912 7.406-6.885 7.578-3.97.172-7.328-2.942-7.498-6.955-.17-4.014 2.91-7.407 6.882-7.58 3.97-.17 7.33 2.944 7.5 6.957" fill="#636462"/><path d="M51.482 130.1c-22.015 0-41.187-7.997-51.168-19.81 7.553 21.178 27.61 36.32 51.168 36.32 23.56 0 43.616-15.142 51.17-36.32-9.982 11.813-29.154 19.81-51.17 19.81m0-76.888c22.016 0 41.188 7.995 51.17 19.81C95.097 51.84 75.04 36.7 51.48 36.7 27.924 36.7 7.867 51.84.314 73.02c9.98-11.815 29.153-19.81 51.168-19.81" fill="#E46E2E"/><path d="M23.337 152.82c.204 4.83-3.505 8.914-8.285 9.122-4.78.207-8.82-3.542-9.024-8.372-.206-4.83 3.503-8.915 8.283-9.122 4.78-.206 8.823 3.542 9.028 8.373" fill="#8A8B8A"/><path d="M11.405 42.78c.126 2.943-2.135 5.432-5.047 5.557-2.912.126-5.374-2.157-5.5-5.1-.125-2.944 2.135-5.433 5.048-5.558 2.912-.128 5.374 2.155 5.5 5.1" fill="#4D4D4C"/><path d="M162.945 98.957c0 21.092-1.62 28.002-5.937 33.093-3.778 4.183-10.075 6.182-17.274 6.73l1.62 12.545c8.456 0 19.972-2.91 26.99-10 7.736-8 10.436-19.093 10.436-36.186V25.31h-15.835v73.647M281.16 89.32c0 9.09.18 17.092.72 24h-14.035l-.9-14.363h-.36c-4.14 7.09-13.314 16.364-28.788 16.364-13.675 0-30.05-7.635-30.05-38.546V25.31h15.835v48.734c0 16.73 5.038 28.004 19.433 28.004 10.615 0 17.992-7.456 20.87-14.55.9-2.36 1.44-5.27 1.44-8.18V25.31h15.835v64.01m29.87-35.278c0-11.273-.36-20.366-.72-28.73h14.215l.72 15.092h.36c6.477-10.728 16.734-17.093 30.948-17.093 21.052 0 36.885 18.004 36.885 44.735 0 31.64-19.072 47.277-39.584 47.277-11.515 0-21.59-5.09-26.81-13.82h-.36v47.825H311.03V54.042zM326.686 77.5c0 2.364.36 4.545.72 6.546 2.88 11.09 12.415 18.73 23.75 18.73 16.734 0 26.45-13.82 26.45-34.005 0-17.636-9.177-32.73-25.91-32.73-10.796 0-20.872 7.82-23.93 19.82-.54 2-1.08 4.365-1.08 6.547V77.5zm94.824-52.19l19.072 52.007c1.98 5.82 4.138 12.73 5.58 18.003h.358c1.62-5.274 3.42-12.002 5.577-18.367L469.37 25.31h16.734l-23.75 62.736c-11.336 30.184-19.073 45.64-29.868 55.097-7.738 6.91-15.475 9.638-19.433 10.364l-3.96-13.455c3.96-1.273 9.178-3.82 13.856-7.82 4.316-3.455 9.715-9.637 13.313-17.82.72-1.635 1.26-2.91 1.26-3.818 0-.91-.36-2.182-1.08-4.182l-32.207-81.1h17.273M527.745.036V25.31h22.67v12.185h-22.67v47.46c0 10.91 3.06 17.093 11.876 17.093 4.137 0 7.196-.547 9.175-1.09l.72 12c-3.058 1.272-7.917 2.18-14.034 2.18-7.378 0-13.315-2.36-17.094-6.726-4.5-4.728-6.12-12.548-6.12-22.913V37.493h-13.494V25.31h13.495V4.22L527.747.036m51.82 72.19c.36 21.638 14.035 30.55 29.87 30.55 11.334 0 18.17-2 24.11-4.548l2.698 11.456c-5.578 2.546-15.113 5.455-28.968 5.455-26.81 0-42.824-17.82-42.824-44.37 0-26.548 15.474-47.46 40.844-47.46 28.43 0 35.986 25.275 35.986 41.46 0 3.273-.36 5.82-.54 7.455h-61.176zm46.42-11.456c.182-10.184-4.136-26.004-21.95-26.004-16.013 0-23.03 14.91-24.29 26.004h46.24zm38.51-8c0-10.365-.18-19.276-.72-27.46h13.854l.54 17.277h.72c3.958-11.82 13.494-19.276 24.11-19.276 1.8 0 3.06.184 4.5.55v15.09c-1.62-.363-3.24-.545-5.4-.545-11.156 0-19.07 8.546-21.23 20.547-.36 2.183-.72 4.73-.72 7.456v46.915h-15.655V52.77" fill="#343433"/><path d="M144.677 221.71h7.128v-23.572c0-1.215.162-2.43.486-3.32 1.217-3.97 4.86-7.29 9.56-7.29 6.723 0 9.07 5.264 9.07 11.582v22.6h7.13V198.3c0-13.446-8.424-16.686-13.85-16.686-6.48 0-11.017 3.645-12.96 7.37h-.163l-.405-6.48h-6.317c.243 3.24.324 6.562.324 10.612v28.593zm50.787 0l.324-6.48h.243c2.918 5.183 7.454 7.37 13.124 7.37 8.748 0 17.577-6.966 17.577-20.98.08-11.906-6.803-20.006-16.523-20.006-6.318 0-10.854 2.835-13.365 7.21h-.16V164.2h-7.048v47.383c0 3.483-.162 7.452-.324 10.125h6.156zm1.215-22.762c0-1.134.24-2.106.403-2.916 1.458-5.427 5.994-8.748 10.854-8.748 7.614 0 11.664 6.723 11.664 14.58 0 8.99-4.454 15.066-11.906 15.066-5.184 0-9.315-3.402-10.692-8.343-.162-.81-.324-1.7-.324-2.592v-7.047zm34.18-16.443l14.904 39.204h6.804l15.39-39.206h-7.453l-7.614 22.032c-1.295 3.564-2.43 6.804-3.32 10.044h-.243c-.81-3.24-1.864-6.48-3.16-10.043l-7.695-22.032h-7.614zm50.95 39.204v-39.206h-7.13v39.204h7.13zm-3.565-54.677c-2.592 0-4.455 1.944-4.455 4.455 0 2.43 1.783 4.373 4.294 4.373 2.835 0 4.617-1.943 4.536-4.373 0-2.512-1.7-4.456-4.374-4.456zm46.9 36.37c.08-.73.242-1.864.242-3.322 0-7.21-3.402-18.467-16.2-18.467-11.42 0-18.387 9.315-18.387 21.14 0 11.827 7.21 19.765 19.28 19.765 6.236 0 10.53-1.297 13.04-2.43l-1.215-5.104c-2.673 1.134-5.75 2.025-10.854 2.025-7.126 0-13.282-3.97-13.444-13.608h27.54zm-27.46-5.104c.567-4.94 3.726-11.584 10.935-11.584 8.02 0 9.964 7.047 9.883 11.583h-20.817zm32.076-15.796l11.827 39.204h6.48l6.318-18.63c1.377-4.213 2.592-8.263 3.564-12.96h.16c.973 4.616 2.107 8.504 3.484 12.878l5.994 18.71h6.48l12.635-39.203h-7.047l-5.59 19.683c-1.295 4.617-2.348 8.748-2.996 12.717h-.243c-.892-3.97-2.026-8.1-3.484-12.798l-6.075-19.602h-5.993l-6.4 20.007c-1.295 4.212-2.59 8.424-3.482 12.393h-.243c-.73-4.05-1.782-8.1-2.916-12.474l-5.184-19.926h-7.29zm95.58 20.898c.08-.73.244-1.863.244-3.32 0-7.21-3.402-18.47-16.2-18.47-11.42 0-18.387 9.316-18.387 21.142 0 11.826 7.21 19.764 19.278 19.764 6.237 0 10.53-1.297 13.04-2.43l-1.214-5.104c-2.672 1.134-5.75 2.025-10.853 2.025-7.128 0-13.284-3.97-13.446-13.608h27.54zm-27.46-5.103c.57-4.94 3.728-11.584 10.937-11.584 8.02 0 9.963 7.047 9.882 11.583H397.88zm36.533 23.41h7.047v-20.9c0-1.215.163-2.35.325-3.32.972-5.347 4.536-9.154 9.558-9.154.972 0 1.7.08 2.43.243v-6.724c-.648-.162-1.215-.243-2.025-.243-4.78 0-9.072 3.32-10.854 8.586h-.324l-.243-7.696h-6.237c.243 3.645.324 7.614.324 12.23v26.974z" fill="#E46E2E"/></g></svg>
